<svg width="297" height="297" viewBox="0 0 297 297" fill="none" xmlns="http://www.w3.org/2000/svg">
<path d="M148.5 297C119.129 297 90.4185 288.291 65.9978 271.973C41.5771 255.656 22.5435 232.463 11.3039 205.328C0.0642721 178.194 -2.87652 148.335 2.85339 119.529C8.5833 90.7229 22.7266 64.2627 43.4947 43.4946L91.4575 91.4575C80.1755 102.739 72.4924 117.113 69.3797 132.762C66.267 148.411 67.8646 164.631 73.9703 179.371C80.0761 194.112 90.4158 206.711 103.682 215.575C116.948 224.439 132.545 229.17 148.5 229.17V297Z" fill="#7FE0E3"/>
<path d="M248.814 257.996C221.461 283.055 185.72 296.969 148.623 297L148.567 229.165C168.718 229.148 188.133 221.59 202.991 207.978L248.814 257.996Z" fill="#FFE269"/>
<path d="M43.4946 43.4947C62.8976 24.0916 87.2973 10.4441 113.986 4.06654C140.674 -2.31102 168.608 -1.16918 194.687 7.36535C220.766 15.8999 243.971 31.4933 261.725 52.4152C279.48 73.3371 291.091 98.7692 295.269 125.889L228.225 136.218C225.955 121.486 219.648 107.672 210.004 96.3067C200.36 84.942 187.755 76.4716 173.589 71.8357C159.423 67.1997 144.249 66.5795 129.752 70.0437C115.255 73.508 102.001 80.9214 91.4611 91.4611L43.4946 43.4947Z" fill="#3D99D8"/>
</svg>
