<?xml version="1.0" encoding="utf-8"?>
<!-- Generator: Adobe Illustrator 22.0.1, SVG Export Plug-In . SVG Version: 6.00 Build 0)  -->
<svg version="1.1" id="Ebene_1" xmlns="http://www.w3.org/2000/svg" xmlns:xlink="http://www.w3.org/1999/xlink" x="0px" y="0px"
	 viewBox="0 0 328 501" style="enable-background:new 0 0 328 501;" xml:space="preserve">
<style type="text/css">
	.st0{fill:#3D99D8;}
	.st1{fill:#BFC638;}
	.st2{fill:#FFE269;}
</style>
<g>
	<path class="st0" d="M320.7,20.9c2.9,44.9,8.6,173.8-13.6,286.1c-5.3-1.3-9.8-1.2-13.7-0.5c-17.7,3.3-10.7,19.5-29,20
		c-8.9,0.3-18.3-3.2-31.1-9.9c20.9-98.6,10.7-241.6,6.1-292.9c-0.9-10.3,7.2-19.2,17.5-19.2h46.3C312.5,4.5,320.1,11.7,320.7,20.9z"
		/>
	<path class="st1" d="M293.5,306.5c3.9-0.7,8.4-0.8,13.7,0.5c-6.5,33-15.4,64.6-27.5,92.1c-15.2,0.1-28.2,2-39.2,4.4
		c-42,9.2-66,29.8-100,19c-26.5-8.4-28.7-26.3-52-38c-12.9-6.5-31-10.5-57.2-5.4C25.2,360,20.5,339.4,16.7,318
		c8.6,3,17.2,6.6,30.8,5.5c11.7-1,16-4.6,38-15c2.2-1,4.3-1.9,6.3-2.5c7.4,63.2,24.1,110,65.7,110.5c40.8,0,63.6-42.4,75.9-99.9
		c12.8,6.7,22.3,10.2,31.1,9.9C282.8,326,275.8,309.8,293.5,306.5z"/>
	<path class="st2" d="M279.7,399.1c-25.1,57.3-63.8,97.4-123.2,97.4c-65.7,0-103.7-49.6-125.2-117.4c26.2-5.1,44.3-1.1,57.2,5.4
		c23.3,11.7,25.5,29.6,52,38c34,10.8,58-9.8,100-19C251.5,401.1,264.5,399.3,279.7,399.1z"/>
	<path class="st0" d="M91.8,306c-2,0.7-4.1,1.5-6.3,2.5c-22,10.4-26.3,14-38,15C34,324.6,25.4,321,16.7,318
		c-8.7-50-11.7-104-12.1-152.8c-0.1-9.8,7.8-17.7,17.6-17.7h45.2c9.5,0,17.3,7.6,17.6,17.1C86.1,213.1,86.8,263.3,91.8,306z"/>
</g>
</svg>
